# File created by Blade
# Date/Time:  Wed Jan 21 14:28:11 2015
# Frame Rate: 120.000 fps
#------------------------------------------------------
:FULLY-SPECIFIED
:DEGREES
738
root 18.757234 35.450679 -21.529978 -170.607445 -3.494218 -178.885771
Spine -18.202679 -0.603161 0.686222
Head 6.044439 -5.276632 2.327533
LeftShoulder -11.539771 -36.046344 23.661487
LeftArm 4.707542 8.694728 -5.847311
LeftForeArm 16.649025 0.000000 -2.157734
LeftHand -8.155678 -0.000000 -8.256377
LeftHandThumb1 -26.253704 0.000000 33.147579
RightShoulder -11.714674 0.015223 -13.747070
RightArm 8.100915 35.158249 6.521483
RightForeArm -40.773315 -0.000000 4.580280
RightHand -7.321399 -0.000000 14.027222
RightHandThumb1 -24.326973 -0.000000 -32.862282
LeftUpLeg -0.544044 8.449037 1.953991
LeftLeg -7.300804 -0.000000 0.000000
LeftFoot -19.813523 27.100323 -11.988682
LeftToeBase 27.271812 -0.000000 -0.000000
RightUpLeg -1.707596 -12.956381 0.037150
RightLeg -4.349538 -0.000000 0.000000
RightFoot -20.181097 -22.511510 16.193850
RightToeBase 25.288747 -0.000000 -0.000000
739
root 18.757477 35.450723 -21.527789 -170.608832 -3.499565 -178.885189
Spine -18.189725 -0.590767 0.677144
Head 5.984238 -5.185685 2.372937
LeftShoulder -11.518885 -36.012838 23.672444
LeftArm 4.691129 8.691570 -5.861620
LeftForeArm 16.624966 -0.000000 -2.167070
LeftHand -8.149999 -0.000000 -8.249980
LeftHandThumb1 -26.253704 0.000000 33.147579
RightShoulder -11.713913 -0.000744 -13.770373
RightArm 8.084876 35.094632 6.531043
RightForeArm -40.810421 0.000000 4.518025
RightHand -7.147871 -0.000000 13.997240
RightHandThumb1 -24.326973 -0.000000 -32.862282
LeftUpLeg -0.550349 8.448528 1.955023
LeftLeg -7.294208 -0.000000 0.000000
LeftFoot -19.818785 27.087659 -12.003614
LeftToeBase 27.225930 -0.000000 -0.000000
RightUpLeg -1.706216 -12.987703 0.037945
RightLeg -4.353543 -0.000000 0.000000
RightFoot -20.166926 -22.470844 16.179880
RightToeBase 25.335873 -0.000000 -0.000000
740
root 18.756885 35.450875 -21.525819 -170.610103 -3.495907 -178.883484
Spine -18.182433 -0.554834 0.669892
Head 5.924331 -5.136751 2.400917
LeftShoulder -11.476697 -35.996959 23.660766
LeftArm 4.679436 8.650202 -5.869025
LeftForeArm 16.641762 -0.000000 -2.186862
LeftHand -8.154227 -0.000000 -8.258877
LeftHandThumb1 -26.253704 0.000000 33.147579
RightShoulder -11.742380 -0.058014 -13.785301
RightArm 8.116994 34.994095 6.533060
RightForeArm -40.583358 -0.000000 4.454618
RightHand -7.193789 -0.000000 13.975876
RightHandThumb1 -24.326973 -0.000000 -32.862282
LeftUpLeg -0.548308 8.459276 1.953621
LeftLeg -7.300891 -0.000000 0.000000
LeftFoot -19.820287 27.083200 -12.004307
LeftToeBase 27.254202 -0.000000 -0.000000
RightUpLeg -1.702547 -12.986193 0.037426
RightLeg -4.365672 -0.000000 0.000000
RightFoot -20.157563 -22.475442 16.193617
RightToeBase 25.276144 -0.000000 -0.000000
741
root 18.756078 35.451325 -21.523201 -170.608684 -3.486504 -178.885427
Spine -18.178408 -0.535885 0.661912
Head 5.878689 -5.048380 2.432149
LeftShoulder -11.450143 -35.999356 23.659115
LeftArm 4.650936 8.614328 -5.858816
LeftForeArm 16.705766 -0.000000 -2.187823
LeftHand -8.156850 -0.000000 -8.286892
LeftHandThumb1 -26.253704 0.000000 33.147579
RightShoulder -11.732769 -0.075188 -13.787127
RightArm 8.117669 35.061042 6.537383
RightForeArm -40.562025 -0.000000 4.448542
RightHand -7.198759 -0.000000 13.965479
RightHandThumb1 -24.326973 -0.000000 -32.862282
LeftUpLeg -0.552155 8.462050 1.949545
LeftLeg -7.301537 -0.000000 0.000000
LeftFoot -19.802524 27.084815 -11.979054
LeftToeBase 27.289955 -0.000000 -0.000000
RightUpLeg -1.716599 -12.954325 0.035306
RightLeg -4.354169 -0.000000 0.000000
RightFoot -20.167507 -22.509052 16.198393
RightToeBase 25.336717 -0.000000 -0.000000
742
root 18.755874 35.451290 -21.520607 -170.607383 -3.486842 -178.879795
Spine -18.176615 -0.518467 0.663324
Head 5.831861 -4.963180 2.446709
LeftShoulder -11.414571 -36.004596 23.653387
LeftArm 4.620251 8.595793 -5.850802
LeftForeArm 16.713790 0.000000 -2.185590
LeftHand -8.183211 -0.000000 -8.300483
LeftHandThumb1 -26.253704 0.000000 33.147579
RightShoulder -11.717735 -0.078690 -13.785164
RightArm 8.091303 35.030585 6.499824
RightForeArm -40.441808 0.000000 4.477340
RightHand -7.320751 -0.000000 14.023010
RightHandThumb1 -24.326973 -0.000000 -32.862282
LeftUpLeg -0.560667 8.479160 1.945503
LeftLeg -7.311231 -0.000000 0.000000
LeftFoot -19.831401 27.110352 -12.037834
LeftToeBase 27.304046 -0.000000 -0.000000
RightUpLeg -1.717178 -12.974665 0.037745
RightLeg -4.359555 -0.000000 0.000000
RightFoot -20.148789 -22.471254 16.170523
RightToeBase 25.371226 -0.000000 -0.000000
743
root 18.755679 35.451990 -21.518572 -170.607669 -3.482288 -178.880098
Spine -18.170793 -0.505647 0.658436
Head 5.768926 -4.942270 2.466700
LeftShoulder -11.404971 -36.023395 23.646843
LeftArm 4.618521 8.580268 -5.823242
LeftForeArm 16.715217 -0.000000 -2.194208
LeftHand -8.215011 -0.000000 -8.316385
LeftHandThumb1 -26.253704 0.000000 33.147579
RightShoulder -11.712546 -0.090007 -13.775108
RightArm 8.088493 35.028750 6.483633
RightForeArm -40.428914 -0.000000 4.482856
RightHand -7.310829 -0.000000 13.989892
RightHandThumb1 -24.326973 -0.000000 -32.862282
LeftUpLeg -0.562799 8.476455 1.949938
LeftLeg -7.297913 -0.000000 0.000000
LeftFoot -19.802951 27.079563 -12.001801
LeftToeBase 27.206798 -0.000000 -0.000000
RightUpLeg -1.722076 -12.969818 0.036968
RightLeg -4.355755 -0.000000 0.000000
RightFoot -20.147745 -22.457964 16.184166
RightToeBase 25.334289 -0.000000 -0.000000
